<svg width="40" height="40" viewBox="0 0 40 40" fill="none" xmlns="http://www.w3.org/2000/svg">
<path d="M10.3058 9.6173C11.1151 8.90902 12.0297 8.32852 13.0243 7.89196C13.3747 7.73819 13.7365 7.60202 14.0995 7.48735C14.1149 7.48252 14.1291 7.48041 14.1422 7.48041C14.1845 7.48041 14.2152 7.50219 14.2351 7.52341C14.257 7.5468 14.2897 7.59635 14.2628 7.66535L13.6018 9.36091C13.5887 9.39435 13.5635 9.42069 13.5306 9.43513L11.5869 10.2882C11.5541 10.3026 11.5175 10.3034 11.4841 10.2904L10.3436 9.84569C10.2826 9.82185 10.2654 9.77202 10.2605 9.74441C10.2555 9.71602 10.2549 9.66185 10.3058 9.6173Z" fill="white"/>
<path d="M5.00812 15.2645L4.79669 15.3312C4.72611 15.3535 4.68673 15.4292 4.70897 15.4998L5.01073 16.4557C5.02532 16.5019 5.05842 16.5249 5.07686 16.5345C5.09531 16.5442 5.13312 16.558 5.17934 16.5435L5.39066 16.4767C5.43683 16.4622 5.45989 16.429 5.46949 16.4106C5.47909 16.3922 5.49304 16.3543 5.47845 16.3082L5.17669 15.3522C5.15862 15.2949 5.10556 15.2583 5.04849 15.2583C5.03514 15.2583 5.02152 15.2603 5.00812 15.2645Z" fill="white"/>
<path d="M34.2411 23.6645L34.4525 23.5978C34.4659 23.5936 34.4795 23.5916 34.4929 23.5916C34.5499 23.5916 34.603 23.6283 34.621 23.6855L34.9228 24.6415C34.9374 24.6877 34.9235 24.7255 34.9139 24.7439C34.9042 24.7624 34.8812 24.7955 34.8351 24.8101L34.6237 24.8768C34.5775 24.8914 34.5397 24.8775 34.5212 24.8678C34.5027 24.8583 34.4697 24.8353 34.4551 24.7891L34.1533 23.8332C34.1311 23.7625 34.1705 23.6868 34.2411 23.6645Z" fill="white"/>
<path d="M7.72587 27.2753L9.50299 26.7727C9.59271 26.7473 9.65682 26.6709 9.66626 26.578L9.80882 25.1698C9.81748 25.0851 9.77826 25.0036 9.7066 24.9573L8.50893 24.1844C8.47115 24.1601 8.42865 24.1481 8.38632 24.1481C8.33465 24.1481 8.28321 24.166 8.24126 24.2012L7.00598 25.2379C6.93604 25.2966 6.90843 25.3909 6.9356 25.478L7.44882 27.1252C7.48548 27.2429 7.60715 27.3087 7.72587 27.2753Z" fill="white"/>
<path fill-rule="evenodd" clip-rule="evenodd" d="M22.7279 0.482777C23.0047 0.512644 23.3084 0.486973 23.6299 0.45979C24.1252 0.417973 24.6377 0.374713 25.1494 0.522537C25.6609 0.670317 26.0711 0.9799 26.4677 1.2793L26.4683 1.27971C26.5842 1.36727 26.6973 1.45266 26.8094 1.53124L26.8097 1.53049C26.8102 1.53021 26.8117 1.53178 26.8146 1.53492C26.8627 1.56854 26.9107 1.6009 26.9586 1.63163C27.1341 1.71563 27.5103 1.82597 28.3076 1.85547C28.7937 1.9329 29.1138 2.05265 29.4435 2.23253C30.0478 2.56206 30.4981 3.09412 30.9334 3.60859L30.9347 3.61012C31.2223 3.95 31.4941 4.27109 31.7907 4.51027C32.0898 4.75164 32.4507 4.94023 32.8328 5.13987C33.4061 5.43931 33.9988 5.749 34.4666 6.28217C34.9333 6.81489 35.1947 7.48 35.4476 8.12333L35.4479 8.12406C35.6166 8.55361 35.7762 8.95944 35.9854 9.29889C36.191 9.63311 36.4716 9.943 36.7686 10.2709L36.7693 10.2718C37.2212 10.7707 37.6886 11.287 37.9685 11.97C38.2422 12.6396 38.2833 13.3583 38.3229 14.0536C38.3497 14.5217 38.3749 14.9639 38.4682 15.3663C38.5573 15.7498 38.7249 16.1424 38.9024 16.5581C39.1759 17.1986 39.4589 17.8612 39.5128 18.6146C39.5667 19.3678 39.3812 20.0634 39.2017 20.7364L39.2016 20.7372C39.085 21.1738 38.9749 21.5863 38.9413 21.9789C38.9063 22.3901 38.9443 22.8314 38.9846 23.2987L38.9846 23.2993C39.0443 23.9929 39.1059 24.7101 38.9305 25.4111C38.7506 26.1275 38.3616 26.7048 37.9853 27.2632C37.7378 27.6304 37.504 27.9774 37.348 28.3374C37.1892 28.7037 37.0892 29.1278 36.9832 29.5771L36.9831 29.5778C36.8244 30.2506 36.6603 30.9462 36.2743 31.5397C35.8871 32.1349 35.3443 32.5259 34.8193 32.9039C34.4697 33.1557 34.1394 33.3936 33.878 33.6749C33.6181 33.9543 33.3946 34.3112 33.1579 34.6892C32.8003 35.2605 32.4303 35.8515 31.8789 36.2638C31.3333 36.6723 30.7003 36.8325 30.0882 36.9873L30.0877 36.9875C29.6787 37.091 29.2923 37.1888 28.9555 37.3535C28.6293 37.5134 28.3107 37.7599 27.9735 38.0209C27.4564 38.4211 26.9214 38.8351 26.2658 39.0122C25.6327 39.1827 24.9909 39.0927 24.3704 39.0057C23.9465 38.9463 23.5457 38.8901 23.1683 38.9171C22.7912 38.9441 22.4032 39.0565 21.9926 39.1755C21.3903 39.3499 20.7668 39.5304 20.1159 39.4517C19.7588 39.4085 18.3381 39.2283 17.4516 39.0271C17.1304 38.9824 16.8266 38.9411 16.54 38.9557C16.262 38.9701 15.9662 39.0435 15.6531 39.1212C15.1706 39.241 14.6715 39.3649 14.1428 39.3C13.6143 39.2351 13.1603 38.9944 12.7213 38.7616L12.7207 38.7613C12.4357 38.6101 12.1664 38.4673 11.8999 38.3861C11.6208 38.3012 11.3101 38.268 10.9813 38.233C10.493 38.1809 9.98811 38.1272 9.52878 37.8933C9.05956 37.654 8.71683 37.2735 8.38544 36.9056C8.23378 36.7372 8.08794 36.5753 7.93706 36.4349C7.64239 36.3096 7.3985 36.168 7.18567 35.9999C7.12339 35.9507 7.06355 35.8992 7.00594 35.8457L6.93117 35.809C6.48894 35.592 6.03161 35.3677 5.67717 34.9872C5.32184 34.6056 5.13029 34.1333 4.94509 33.6766C4.82174 33.3723 4.70517 33.085 4.54871 32.8444C4.4877 32.7506 4.41763 32.6593 4.34129 32.5689L4.33412 32.5634C3.81948 32.1718 3.28731 31.7667 2.916 31.1624C2.54563 30.5588 2.39988 29.8591 2.25892 29.1824L2.25877 29.1817C2.16475 28.7298 2.0758 28.3029 1.92671 27.9331C1.78028 27.569 1.55586 27.2163 1.31832 26.8431L1.31772 26.8421C0.956361 26.2742 0.582472 25.6867 0.421583 24.9663C0.264482 24.2602 0.344988 23.5447 0.422914 22.8528C0.475412 22.3868 0.524967 21.9466 0.500789 21.5343C0.477504 21.1413 0.378364 20.7261 0.273323 20.2864C0.111563 19.6091 -0.0557823 18.9083 0.0178955 18.1566C0.0915577 17.405 0.391524 16.7505 0.681689 16.1174L0.682022 16.1167C0.870422 15.7058 1.04837 15.3177 1.14756 14.9364C1.25129 14.537 1.28814 14.0956 1.32713 13.6282L1.32718 13.6276C1.38514 12.9338 1.44508 12.2166 1.73601 11.5551C2.03394 10.8791 2.51467 10.3756 2.97956 9.88856C3.28534 9.56817 3.57421 9.26544 3.78855 8.93689C4.00673 8.60261 4.17677 8.20139 4.3568 7.77639L4.35709 7.77567C4.62677 7.13922 4.90559 6.48117 5.38597 5.96111C5.86789 5.43953 6.46878 5.14553 7.04983 4.86127C7.43689 4.67192 7.8025 4.49301 8.10756 4.25977C8.41083 4.02811 8.69128 3.71386 8.98817 3.38112C9.43683 2.87817 9.90106 2.35792 10.5139 2.04431C11.1206 1.73355 11.7714 1.68216 12.4009 1.63254L12.4015 1.63249C12.8221 1.59931 13.2193 1.56798 13.5791 1.4623C13.9276 1.35963 14.2831 1.17022 14.6594 0.9697C15.2365 0.662306 15.8336 0.344254 16.5096 0.280058C17.1624 0.218608 17.7799 0.415323 18.3769 0.605539C18.4207 0.619472 18.4645 0.63345 18.5077 0.647122C18.6405 0.591717 18.7755 0.529105 18.9142 0.464822C19.3634 0.256498 19.828 0.041049 20.3532 0.0051107C20.8678 -0.0296426 21.3532 0.119059 21.8227 0.262882C22.1388 0.359749 22.4376 0.451259 22.7279 0.482777ZM23.9687 13.5221H26.6409V9.35544H23.1146C19.7854 9.35544 18.3076 10.8207 18.3076 13.6291V16.2999H15.5298V20.4666H18.3076V31.5777H22.4743V20.4666H26.3104L26.6409 16.2999H22.4743V14.7568C22.4743 13.8721 23.1146 13.5221 23.9687 13.5221ZM28.3008 28.8726C28.3008 28.5748 28.0593 28.3333 27.7615 28.3333C27.4637 28.3333 27.2222 28.5748 27.2222 28.8726C27.2222 29.1704 27.4637 29.4119 27.7615 29.4119C28.0593 29.4119 28.3008 29.1704 28.3008 28.8726ZM32.7615 14.4444C33.0593 14.4444 33.3008 14.6859 33.3008 14.9837C33.3008 15.2816 33.0593 15.523 32.7615 15.523C32.4637 15.523 32.2222 15.2816 32.2222 14.9837C32.2222 14.6859 32.4637 14.4444 32.7615 14.4444ZM14.4119 32.7615C14.4119 32.4637 14.1704 32.2222 13.8726 32.2222C13.5748 32.2222 13.3333 32.4637 13.3333 32.7615C13.3333 33.0593 13.5748 33.3008 13.8726 33.3008C14.1704 33.3008 14.4119 33.0593 14.4119 32.7615ZM8.87261 18.3333C9.17044 18.3333 9.41189 18.5748 9.41189 18.8726C9.41189 19.1704 9.17044 19.4119 8.87261 19.4119C8.57478 19.4119 8.33333 19.1704 8.33333 18.8726C8.33333 18.5748 8.57478 18.3333 8.87261 18.3333ZM10.048 10.6038L11.1886 11.0486C11.3003 11.0921 11.4168 11.1138 11.5332 11.1138C11.6627 11.1138 11.792 11.0869 11.9141 11.0333L13.8577 10.1803C14.0897 10.0784 14.2682 9.89239 14.3601 9.65644L15.0211 7.96083C15.155 7.61739 15.0815 7.23656 14.8292 6.96711C14.5779 6.69883 14.2044 6.60083 13.8544 6.71133C13.4637 6.83478 13.0744 6.98128 12.6974 7.14678C11.6267 7.61667 10.6417 8.24189 9.76989 9.00483C9.51739 9.22583 9.40122 9.55483 9.45905 9.88483C9.51661 10.2137 9.73683 10.4824 10.048 10.6038ZM4.23468 16.7007L3.93293 15.7448C3.77559 15.2462 4.05321 14.7126 4.55169 14.5551L4.76317 14.4884C5.26171 14.3313 5.79539 14.6087 5.95272 15.1072L6.2545 16.0632C6.33072 16.3047 6.30828 16.5614 6.19144 16.7861C6.07455 17.0108 5.87722 17.1766 5.63572 17.2528L5.42436 17.3195C5.33022 17.3492 5.23376 17.3639 5.13779 17.3639C4.98751 17.3639 4.83842 17.3278 4.70132 17.2565C4.4766 17.1396 4.31091 16.9422 4.23468 16.7007ZM33.3774 24.0781L33.6791 25.034C33.7553 25.2755 33.9211 25.4729 34.1458 25.5898C34.2828 25.6611 34.4319 25.6972 34.5822 25.6972C34.6782 25.6972 34.7747 25.6825 34.8688 25.6528L35.0802 25.5861C35.3217 25.5099 35.519 25.3442 35.6359 25.1194C35.7527 24.8948 35.7752 24.6381 35.6989 24.3965L35.3972 23.4405C35.2398 22.942 34.7062 22.6646 34.2076 22.8217L33.9961 22.8884C33.4977 23.0459 33.2201 23.5796 33.3774 24.0781ZM10.6184 25.2519L10.4758 26.6601C10.4326 27.0873 10.1376 27.4389 9.72444 27.5557L7.94722 28.0583C7.85106 28.0856 7.75444 28.0986 7.65961 28.0986C7.21572 28.0986 6.81089 27.8138 6.67172 27.3673L6.1585 25.7202C6.03344 25.3188 6.16067 24.8848 6.48272 24.6146L7.718 23.5779C8.06944 23.2828 8.56461 23.2519 8.95006 23.5007L10.1478 24.2736C10.4777 24.4864 10.6579 24.8614 10.6184 25.2519Z" fill="white"/>
</svg>
