<svg width="40" height="40" viewBox="0 0 40 40" fill="none" xmlns="http://www.w3.org/2000/svg">
<g clip-path="url(#clip0)">
<path fill-rule="evenodd" clip-rule="evenodd" d="M31.4426 0.0817955C32.1117 -0.115858 32.8128 0.0496544 33.3181 0.524655C33.8234 0.99958 34.0239 1.68147 33.8544 2.34871L33.4132 4.08647C33.2808 4.60804 32.9276 5.05053 32.4442 5.30044C32.1665 5.44411 31.8598 5.51678 31.5522 5.51678C31.3246 5.51678 31.0966 5.47697 30.8792 5.3967L29.6413 4.9396C28.7849 4.62343 28.2725 3.74915 28.4228 2.86089L28.5626 2.03488C28.6819 1.32996 29.2082 0.74182 29.9034 0.536502L31.4426 0.0817955ZM32.5286 3.86864L32.9698 2.13089C33.0586 1.78089 32.9535 1.42321 32.6885 1.17414C32.497 0.994193 32.252 0.89896 31.9985 0.89896C31.901 0.89896 31.8022 0.913027 31.7047 0.94182L30.1654 1.39653C29.8008 1.50421 29.5248 1.81274 29.4622 2.18249L29.3224 3.00851C29.2435 3.47445 29.5123 3.93299 29.9615 4.09887L31.1994 4.55596C31.4715 4.65641 31.763 4.63845 32.0203 4.50543C32.2776 4.37243 32.4581 4.14628 32.5286 3.86864Z" fill="white"/>
<path fill-rule="evenodd" clip-rule="evenodd" d="M19.0147 17.1909C17.5854 17.1909 16.1877 19.4335 16.1877 21.1071C16.1877 22.666 17.4559 23.9341 19.0147 23.9341C20.6884 23.9341 22.9308 22.5365 22.9308 21.1071C22.9308 19.5334 20.5885 17.1909 19.0147 17.1909ZM18.7508 18.7596L19.1434 19.5449C19.2341 19.7263 19.1606 19.9469 18.9791 20.0377C18.9264 20.0641 18.8703 20.0765 18.8151 20.0765C18.6803 20.0765 18.5507 20.0021 18.4863 19.8734L18.0937 19.0881C18.0029 18.9067 18.0765 18.6861 18.258 18.5953C18.4395 18.5045 18.6601 18.5781 18.7508 18.7596Z" fill="white"/>
<path fill-rule="evenodd" clip-rule="evenodd" d="M19.8707 11.8385C22.5488 11.8385 22.8673 11.8485 23.9243 11.8962C26.6426 12.0203 27.9114 13.3105 28.0356 16.0099C28.0832 17.0669 28.0932 17.3841 28.0932 20.0623C28.0932 22.7404 28.0832 23.0577 28.0356 24.1159C27.9114 26.8115 26.6451 28.103 23.9243 28.2271C22.8673 28.2747 22.5501 28.2848 19.8707 28.2848C17.1926 28.2848 16.8741 28.2735 15.8172 28.2259C13.0926 28.1017 11.83 26.8078 11.7059 24.1146C11.6582 23.0564 11.647 22.7391 11.647 20.061C11.647 17.3829 11.6582 17.0657 11.7072 16.0075C11.83 13.3093 13.0976 12.0203 15.8184 11.8962C16.8754 11.8485 17.1926 11.8385 19.8707 11.8385ZM16.0654 25.6854C15.9219 25.5419 15.6893 25.5419 15.5459 25.6854L15.1533 26.078C15.0098 26.2215 15.0098 26.454 15.1533 26.5975C15.225 26.6691 15.319 26.7051 15.413 26.7051C15.507 26.7051 15.601 26.6691 15.6728 26.5975L16.0654 26.2049C16.2088 26.0614 16.2088 25.8288 16.0654 25.6854ZM26.5808 14.7076C26.5808 14.3597 26.3728 13.9441 26.0246 13.5959C25.6763 13.2476 25.2607 13.0397 24.9128 13.0397C24.1699 13.0397 23.5716 13.9521 23.5716 14.7076C23.5716 15.4471 24.1733 16.0488 24.9128 16.0488C25.6683 16.0488 26.5808 15.4505 26.5808 14.7076ZM22.7206 17.4013C23.8815 18.5622 24.5746 19.9476 24.5746 21.1071C24.5746 23.5836 21.533 25.5778 19.0148 25.5778C16.5497 25.5778 14.5442 23.5722 14.5442 21.1071C14.5442 18.5889 16.5384 15.5473 19.0148 15.5473C20.1744 15.5473 21.5597 16.2403 22.7206 17.4013Z" fill="white"/>
<path fill-rule="evenodd" clip-rule="evenodd" d="M39.4303 20.3118C39.4303 22.4407 39.088 24.5169 38.4297 26.4778C38.4466 26.6719 38.4758 26.8745 38.5059 27.0829L38.506 27.0839C38.5943 27.6969 38.6856 28.3308 38.5003 28.948C38.315 29.565 37.8897 30.0437 37.4785 30.5065L37.478 30.5071C37.2109 30.8075 36.9587 31.0913 36.7955 31.389C36.6248 31.7008 36.523 32.065 36.4154 32.4504C36.2556 33.0227 36.0904 33.6143 35.6742 34.1012C35.2483 34.5985 34.6413 34.9045 34.0545 35.2004C33.6684 35.3951 33.3037 35.5791 33.0189 35.8034C32.729 36.0317 32.4835 36.329 32.2239 36.6434C31.8349 37.1143 31.4327 37.6013 30.8239 37.9214C30.2131 38.2423 29.5005 38.3411 28.8114 38.4367C28.3523 38.5004 27.9187 38.5605 27.5453 38.6817C27.1747 38.8019 26.818 38.9976 26.4407 39.2046L26.4403 39.2049L26.4394 39.2054C25.8684 39.5188 25.2779 39.8428 24.5491 39.9553C23.8278 40.0669 23.0923 39.9481 22.3812 39.8333L22.3798 39.8331C21.9049 39.7564 21.4563 39.6839 21.0394 39.6837C20.6359 39.6836 20.2129 39.755 19.765 39.8306L19.7642 39.8307L19.7624 39.8311C19.0746 39.9471 18.3633 40.0672 17.5981 39.9531C17.3916 39.9222 17.1909 39.8749 16.9951 39.8161C16.4897 39.6643 16.0154 39.4357 15.5525 39.2125C15.335 39.1076 15.1234 39.0055 14.9146 38.9142C14.5217 38.8048 14.133 38.6831 13.7488 38.5492C13.487 38.4999 13.2131 38.4629 12.9303 38.4247L12.9293 38.4245C12.2225 38.3291 11.4915 38.2301 10.8137 37.9152C10.3757 37.7118 10.0057 37.4438 9.66533 37.1554C9.5984 37.1347 9.53073 37.1141 9.46247 37.0934C8.79327 36.8901 8.10133 36.6797 7.51613 36.2263C6.9322 35.7732 6.55523 35.1543 6.19078 34.5557L6.19043 34.5551C5.94718 34.1553 5.71725 33.7778 5.44181 33.4745C5.17097 33.1757 4.82124 32.9136 4.45106 32.6361L4.44991 32.6353C3.88685 32.2133 3.30458 31.7769 2.90515 31.1433C2.51425 30.522 2.37181 29.8133 2.23412 29.1279C2.14143 28.6663 2.05381 28.2303 1.89705 27.8452C1.74738 27.4782 1.51007 27.1147 1.25904 26.7302C0.872353 26.1379 0.472565 25.5254 0.311377 24.7845C0.150212 24.0436 0.259408 23.3205 0.36503 22.621L0.365145 22.6202C0.433805 22.1663 0.49863 21.7375 0.482253 21.3411C0.464959 20.9261 0.363515 20.4931 0.256063 20.0347L0.255903 20.034C0.0965439 19.3535 -0.0682515 18.6498 0.0291619 17.9231C0.129366 17.1802 0.477853 16.5412 0.814853 15.9233C1.03651 15.5169 1.24588 15.1328 1.36817 14.7487C1.49267 14.3579 1.54496 13.9192 1.60025 13.4545L1.60034 13.4537C1.68321 12.7579 1.7689 12.0383 2.11177 11.3839C2.45581 10.7273 2.9981 10.2485 3.52257 9.78555C3.87187 9.47708 4.20187 9.18575 4.45047 8.86255C4.69772 8.54148 4.89461 8.14895 5.10291 7.73361C5.41769 7.10581 5.74327 6.45676 6.29205 5.95525C6.83513 5.45855 7.50753 5.19448 8.1578 4.93919L8.15833 4.93896C8.36647 4.85724 8.56913 4.77769 8.76193 4.69283C9.1808 4.3868 9.61053 4.09875 10.05 3.82909C10.1447 3.74228 10.2401 3.65236 10.3369 3.56097L10.3373 3.56061C10.8501 3.0769 11.3804 2.5767 12.0754 2.29212C12.6963 2.03836 13.3556 2.00526 13.999 1.98911C15.0478 1.63975 16.1295 1.38076 17.2344 1.21608C17.7187 1.02215 18.2212 0.860311 18.7602 0.838625C19.1997 0.820858 19.6187 0.894031 20.0245 1.00331C20.0569 1.00316 20.0892 1.00306 20.1215 1.00306C21.1829 1.00306 22.2538 1.09147 23.3041 1.26561C23.8715 1.35976 24.2779 1.86465 24.2488 2.439L24.2473 2.47361L24.2459 2.50845C24.2445 2.55306 24.2437 2.59741 24.2437 2.64099C24.2437 4.63749 25.7386 6.29825 27.7209 6.5041C28.2533 6.55938 28.6741 6.98008 28.7293 7.51255C28.9178 9.32655 30.3712 10.7801 32.1853 10.9685C32.7177 11.0237 33.1385 11.4445 33.1937 11.9769C33.3996 13.9593 35.0603 15.4541 37.0569 15.4541C37.2711 15.4541 37.4914 15.4353 37.7116 15.398C38.3093 15.2969 38.8809 15.6851 39.0069 16.2783C39.2877 17.5997 39.4303 18.9567 39.4303 20.3118ZM24.0071 30.0313C27.6457 29.8646 29.6756 27.8434 29.8411 24.1961C29.89 23.1266 29.9013 22.7855 29.9013 20.061C29.9013 17.3377 29.89 16.9955 29.8411 15.9247C29.6781 12.2861 27.6532 10.2575 24.0071 10.0907C22.9363 10.0418 22.5953 10.0305 19.8707 10.0305C17.1462 10.0305 16.8064 10.0418 15.7357 10.0919C12.0921 10.2575 10.0685 12.2799 9.9004 15.9259C9.85153 16.9955 9.84027 17.3377 9.84027 20.061C9.84027 22.7855 9.85153 23.1266 9.9004 24.1961C10.0685 27.8397 12.0896 29.8646 15.7357 30.0313C16.8064 30.0803 17.1462 30.0915 19.8707 30.0915C22.5953 30.0915 22.9363 30.0803 24.0071 30.0313ZM4.63924 22.1747L5.03185 22.5673C5.1753 22.7107 5.1753 22.9433 5.03185 23.0867C4.96014 23.1585 4.86611 23.1943 4.77212 23.1943C4.67813 23.1943 4.58409 23.1585 4.51239 23.0867L4.11979 22.6941C3.97634 22.5507 3.97634 22.3181 4.11979 22.1747C4.26325 22.0313 4.49584 22.0313 4.63924 22.1747ZM19.9268 35.6083C19.7239 35.6083 19.5595 35.7727 19.5595 35.9756V36.4977C19.5595 36.7006 19.7239 36.8651 19.9268 36.8651C20.1297 36.8651 20.2941 36.7006 20.2941 36.4977V35.9756C20.2941 35.7727 20.1297 35.6083 19.9268 35.6083ZM34.089 22.6075C34.2705 22.5167 34.4911 22.5903 34.5818 22.7718C34.6726 22.9533 34.599 23.1739 34.4175 23.2646L33.6323 23.6572C33.5796 23.6835 33.5236 23.6961 33.4684 23.6961C33.3336 23.6961 33.2039 23.6217 33.1395 23.4929C33.0488 23.3115 33.1223 23.0909 33.3038 23.0001L34.089 22.6075ZM6.51849 9.63661C6.6619 9.49315 6.89447 9.49315 7.03793 9.63661C7.1814 9.78001 7.1814 10.0126 7.03793 10.156L6.64535 10.5486C6.57364 10.6203 6.47961 10.6562 6.38562 10.6562C6.29163 10.6562 6.19759 10.6203 6.12589 10.5486C5.98244 10.4052 5.98244 10.1726 6.12589 10.0292L6.51849 9.63661ZM19.5761 5.51551L19.1835 5.12286C19.0401 4.9794 18.8075 4.9794 18.664 5.12286C18.5206 5.26631 18.5206 5.49885 18.664 5.64231L19.0567 6.03495C19.1284 6.10671 19.2224 6.14256 19.3164 6.14256C19.4104 6.14256 19.5044 6.10671 19.5761 6.03495C19.7195 5.89155 19.7195 5.65901 19.5761 5.51551Z" fill="white"/>
<path fill-rule="evenodd" clip-rule="evenodd" d="M36.4609 4.68453L36.7333 5.54745C36.8021 5.76551 36.9517 5.94373 37.1546 6.04923C37.2783 6.11359 37.4129 6.1462 37.5486 6.1462C37.6353 6.1462 37.7223 6.13293 37.8073 6.10615L37.9981 6.0459C38.2161 5.97709 38.3943 5.82747 38.4998 5.62459C38.6053 5.42178 38.6255 5.19003 38.5567 4.97197L38.2843 4.10895C38.1423 3.65895 37.6605 3.40853 37.2104 3.55037L37.0195 3.61057C36.5695 3.75273 36.3189 4.23449 36.4609 4.68453ZM37.2407 4.31118L37.4315 4.25099C37.4436 4.24716 37.4559 4.24535 37.4679 4.24535C37.5195 4.24535 37.5673 4.27846 37.5837 4.33013L37.8561 5.19315C37.8693 5.23484 37.8567 5.26897 37.848 5.28563C37.8393 5.30228 37.8185 5.33215 37.7769 5.34533L37.5861 5.40557C37.5443 5.41875 37.5102 5.4062 37.4935 5.39749C37.4769 5.38881 37.447 5.36811 37.4339 5.32637L37.1615 4.46345C37.1413 4.39963 37.1769 4.33131 37.2407 4.31118Z" fill="white"/>
<path fill-rule="evenodd" clip-rule="evenodd" d="M38.2089 9.43499C38.1719 9.11813 38.0109 8.83813 37.7557 8.64673L37.2347 8.25599C36.8832 7.99233 36.4207 7.95066 36.0277 8.14719L35.5536 8.38419C35.0085 8.65673 34.7696 9.30893 35.0097 9.86913L35.3911 10.7592C35.5504 11.1306 35.8841 11.3873 36.2841 11.4457C36.3409 11.4539 36.3975 11.458 36.4537 11.458C36.7929 11.458 37.1139 11.3093 37.3359 11.043L37.9495 10.3066C38.1538 10.0615 38.2459 9.75193 38.2089 9.43499ZM37.3851 9.83626L36.7715 10.5727C36.6763 10.6869 36.5372 10.7401 36.3901 10.7186C36.2429 10.6971 36.1249 10.6064 36.0663 10.4697L35.6849 9.57966C35.5978 9.37653 35.6845 9.14006 35.8821 9.04126L36.3563 8.80426C36.4159 8.77439 36.4799 8.75973 36.5436 8.75973C36.6321 8.75973 36.7198 8.78813 36.7939 8.84366L37.3149 9.23439C37.4074 9.30379 37.4658 9.40533 37.4792 9.52026C37.4925 9.63513 37.4592 9.74739 37.3851 9.83626Z" fill="white"/>
</g>
<defs>
<clipPath id="clip0">
<rect width="40" height="40" fill="white"/>
</clipPath>
</defs>
</svg>
